<?xml version="1.0"?>
<svg xmlns="http://www.w3.org/2000/svg" viewBox="0 0 50 50" enable-background="new 0 0 50 50">
    <path style="text-indent:0;text-align:start;line-height:normal;text-transform:none;block-progression:tb;-inkscape-font-specification:Bitstream Vera Sans" d="M 25 3 C 24.037097 3 23.069223 3.4840112 22.53125 4.40625 L 2.4375 39.3125 C 1.286997 41.32588 2.7600866 44.000782 5.09375 43.90625 C 5.115632 43.905364 5.13422 43.90765 5.15625 43.90625 L 44.8125 43.90625 C 47.218382 43.90625 48.723791 41.251009 47.5625 39.21875 L 47.5625 39.1875 L 27.46875 4.40625 C 26.930777 3.4840112 25.962903 3 25 3 z M 25 5 C 25.277848 5 25.554269 5.1460965 25.71875 5.40625 L 45.84375 40.1875 C 46.282459 40.955241 45.80662 41.90625 44.8125 41.90625 L 5.09375 41.90625 L 5.0625 41.90625 L 5.03125 41.90625 C 4.2142645 41.95731 3.7486565 41.072726 4.15625 40.3125 C 4.16199 40.3018 4.15016 40.2919 4.15625 40.28125 L 24.28125 5.40625 C 24.445731 5.1460965 24.722152 5 25 5 z M 26.1875 18 C 25.138159 18 24.3125 18.856909 24.3125 19.90625 C 24.3125 20.955591 25.138159 21.8125 26.1875 21.8125 C 27.236841 21.8125 28.09375 20.955591 28.09375 19.90625 C 28.09375 18.856909 27.236841 18 26.1875 18 z M 23.1875 21.8125 C 23.1875 21.8125 20.5125 21.9 20.3125 22 C 20.0125 22 19.9125 22.0875 19.8125 22.1875 C 19.7125 22.2875 17 25.1875 17 25.1875 C 16.75 25.4375 16.71875 25.70625 16.78125 25.90625 A 1.0001 1.0001 0 0 0 17.34375 27.09375 L 18.875 27.84375 C 18.805697 28.059158 18.726454 28.289387 18.6875 28.40625 C 18.5875 28.70625 16.4125 36.3 16.3125 36.5 C 16.2125 36.7 16.10625 37.7 16.90625 38 C 17.80625 38.3 18.09375 37.1875 18.09375 37.1875 L 20.5 30.90625 L 22.6875 32.90625 L 23.1875 37 C 23.1875 37 23.2 38 24 38 C 24.8 38 24.8125 37.5125 24.8125 36.8125 C 24.8125 36.2125 24.6875 33.3875 24.6875 33.1875 C 24.6875 32.9875 24.6 32.7 24.5 32.5 C 24.331277 32.162554 23.472008 30.555747 23.15625 29.96875 L 28.71875 32.71875 C 28.658517 32.773342 28.6268 32.81026 28.625 32.8125 C 28.390926 32.824281 28.139128 32.867166 27.875 32.96875 C 27.573431 33.084738 27.224503 33.369467 27.03125 33.78125 L 27 33.75 L 26.9375 33.875 L 25.09375 37.5625 A 1.0001 1.0001 0 0 0 26 39 L 36 39 A 1.0001 1.0001 0 0 0 36.90625 37.5625 C 36.90625 37.5625 36.192243 36.109278 35.46875 34.5625 C 35.107004 33.789111 34.756899 32.975819 34.46875 32.34375 C 34.180601 31.711681 33.921619 31.139858 33.9375 31.1875 A 1.0001 1.0001 0 0 0 33.90625 31.09375 C 33.520222 30.193017 32.966667 29.5 32 29.5 C 31.8 29.5 31.113559 29.624931 30.71875 30 C 30.45759 30.248102 30.191129 30.627582 29.875 31.09375 L 27.3125 29.8125 C 27.036718 28.576645 26.3125 24.40625 26.3125 24.40625 C 26.2125 24.10625 26.1 23.8875 26 23.6875 C 26 23.6875 25.6875 23.19375 24.6875 22.59375 C 23.7875 21.99375 23.3875 21.8125 23.1875 21.8125 z M 20.40625 23.90625 L 21.40625 23.90625 L 19.875 26.125 L 18.75 25.5625 L 20.40625 23.90625 z M 24.8125 26.09375 C 24.987321 26.851307 25.228701 27.986722 25.46875 28.90625 L 23.5625 27.96875 L 24.8125 26.09375 z M 31.9375 31.6875 C 31.98613 31.74812 32.03555 31.77045 32.09375 31.90625 C 32.210422 32.235573 32.382417 32.586834 32.65625 33.1875 C 32.949351 33.830431 33.292996 34.629639 33.65625 35.40625 C 34.03769 36.221742 34.136669 36.429308 34.40625 37 L 27.625 37 L 28.71875 34.8125 C 28.75471 34.8076 28.7625 34.8125 28.8125 34.8125 C 29.5125 34.8125 29.870355 34.427587 30.1875 34.09375 C 30.504645 33.759913 30.79265 33.36926 31.0625 32.9375 L 31.03125 32.9375 C 31.530868 32.146439 31.785908 31.861896 31.9375 31.6875 z" overflow="visible" enable-background="accumulate" font-family="Bitstream Vera Sans" fill=" #20c997" data-original="#000000"/>
</svg>
